<svg width="256" height="256" viewBox="0 0 256 256" fill="none" xmlns="http://www.w3.org/2000/svg">
<path d="M170.537 202.459C197.548 202.459 219.442 180.516 219.442 153.446C219.442 126.375 197.548 104.432 170.537 104.432C163.521 104.432 156.852 105.914 150.821 108.58L146.329 102.347C153.893 98.7444 162.163 96.8805 170.537 96.8919C201.705 96.8919 226.966 122.213 226.966 153.446C226.966 184.682 201.705 210 170.537 210C145.972 210 125.067 194.263 117.321 172.297H31.3806C29.2853 172.297 28.4313 170.861 29.4846 169.066L100.923 47.3432C101.973 45.5561 103.669 45.5485 104.719 47.3432L176.161 169.062C177.211 170.849 176.368 172.293 174.265 172.293H138.129V164.753H164.894L102.823 59.1855L40.7515 164.753H122.449L125.387 172.414C132.851 190.078 150.253 202.459 170.537 202.459Z" fill="#F69800"/>
</svg>
