<svg width="150" height="123" viewBox="0 0 150 123" fill="none" xmlns="http://www.w3.org/2000/svg">
<path d="M98.3956 102.862C113.251 102.862 125.293 90.82 125.293 75.9643C125.293 61.1085 113.251 49.0666 98.3956 49.0666C94.5369 49.0666 90.8684 49.8798 87.5517 51.3426L85.0813 47.9225C89.241 45.9452 93.7899 44.9223 98.3956 44.9285C115.538 44.9285 129.431 58.8243 129.431 75.9643C129.431 93.1063 115.538 107 98.3956 107C84.8847 107 73.387 98.3638 69.1269 86.3095H21.8594C20.707 86.3095 20.2373 85.5212 20.8166 84.5363L60.1079 17.7371C60.6851 16.7564 61.6183 16.7522 62.1956 17.7371L101.489 84.5343C102.066 85.515 101.603 86.3074 100.446 86.3074H80.5708V82.1693H95.2921L61.1528 24.236L27.0134 82.1693H71.947L73.5629 86.3737C77.6679 96.0671 87.2393 102.862 98.3956 102.862Z" fill="#F69800"/>
</svg>
