<svg width="110" height="90" viewBox="0 0 110 90" fill="none" xmlns="http://www.w3.org/2000/svg">
<path d="M78.3956 85.8619C93.2514 85.8619 105.293 73.82 105.293 58.9643C105.293 44.1085 93.2514 32.0666 78.3956 32.0666C74.5369 32.0666 70.8684 32.8798 67.5517 34.3426L65.0813 30.9225C69.241 28.9452 73.7899 27.9223 78.3956 27.9285C95.5377 27.9285 109.431 41.8243 109.431 58.9643C109.431 76.1063 95.5377 90 78.3956 90C64.8847 90 53.387 81.3638 49.1269 69.3095H1.85945C0.706989 69.3095 0.237316 68.5212 0.816649 67.5363L40.1079 0.737099C40.6851 -0.24363 41.6183 -0.247768 42.1956 0.737099L81.4889 67.5343C82.0661 68.515 81.6027 69.3074 80.4461 69.3074H60.5708V65.1693H75.2921L41.1528 7.23598L7.01345 65.1693H51.947L53.5629 69.3737C57.6679 79.0671 67.2393 85.8619 78.3956 85.8619Z" fill="white"/>
</svg>
