<svg width="467" height="95" viewBox="0 0 467 95" fill="none" xmlns="http://www.w3.org/2000/svg">
<g clip-path="url(#clip0_725_602)">
<path d="M29.4075 13.4729V2.05519H0.863281V59.2008H12.281V36.3654H26.8385V24.8906H12.281V13.4729H29.4075ZM50.2448 59.2008V2.05519H38.8271V59.2008H50.2448ZM104.536 59.2008L91.2344 35.6232C108.018 30.7707 106.02 2.05519 85.6397 2.05519H63.1468V59.2008H74.5645V37.393H80.045L91.5769 59.2008H104.536ZM74.5645 13.4729H84.6121C92.3761 13.4729 92.3761 26.2607 84.6121 26.2607H74.5645V13.4729ZM109.503 55.5471C117.21 59.5433 124.346 59.9429 127.543 59.6575C138.275 59.1437 144.783 51.8363 144.783 42.3597C144.783 33.2255 137.133 28.0875 128.285 24.8335C124.974 23.6917 122.176 22.2645 121.891 19.0676C121.605 15.8706 123.489 12.902 127.543 12.6736C129.312 12.6166 132.909 12.5024 139.189 15.0714L140.673 4.05328C133.309 1.4843 129.369 1.4843 126.401 1.65557C116.924 2.11227 110.302 9.47669 110.302 19.0676C110.302 28.6584 118.294 33.2255 127.2 36.4795C130.397 37.6213 132.909 39.0485 133.137 42.3597C133.48 45.4424 130.568 47.8402 127.2 48.0685C124.574 48.3539 117.495 48.1827 110.93 43.5585L109.503 55.5471ZM175.269 59.2008V13.4729H189.484V2.11227H149.579V13.4729H163.851V59.2008H175.269ZM257.191 15.2997L258.561 3.59657C255.078 2.05519 251.253 1.31304 247.257 1.31304C208.608 1.31304 208.494 59.372 247.257 59.372C251.253 59.372 256.277 58.4015 259.817 56.9743L258.275 45.157C256.163 46.2417 252.224 47.6689 247.257 47.6689C224.65 47.6689 224.65 12.8449 247.257 12.8449C252.224 12.8449 255.021 14.215 257.191 15.2997ZM296.41 60C335.744 60 335.744 1.08468 296.41 1.08468C257.076 1.08468 257.076 60 296.41 60ZM296.41 48.1827C273.575 48.1827 273.575 12.8449 296.41 12.8449C319.303 12.8449 319.303 48.1827 296.41 48.1827ZM331.52 59.2008H344.479L346.705 53.0352H365.659L367.942 59.2008H380.844L356.753 0H355.554L331.52 59.2008ZM350.873 42.3597L356.182 27.4596L361.377 42.3597H350.873ZM386.153 55.5471C393.917 59.5433 401.054 59.9429 404.25 59.6575C414.926 59.1437 421.491 51.8363 421.491 42.3597C421.491 33.2255 413.841 28.0875 404.936 24.8335C401.682 23.6917 398.884 22.2645 398.542 19.0676C398.313 15.8706 400.14 12.902 404.25 12.6736C406.02 12.6166 409.617 12.5024 415.897 15.0714L417.324 4.05328C410.016 1.4843 406.077 1.4843 403.109 1.65557C393.632 2.11227 386.953 9.47669 386.953 19.0676C386.953 28.6584 394.945 33.2255 403.908 36.4795C407.105 37.6213 409.617 39.0485 409.845 42.3597C410.131 45.4424 407.276 47.8402 403.908 48.0685C401.282 48.3539 394.146 48.1827 387.638 43.5585L386.153 55.5471ZM451.976 59.2008V13.4729H466.191V2.11227H426.287V13.4729H440.502V59.2008H451.976Z" fill="white"/>
<path d="M16.3156 93.8915V71.7947H11.9006V80.6246H5.27823V71.7947H0.863281V93.8915H5.27823V85.0616H11.9006V93.8915H16.3156ZM31.9224 94.2005C47.1319 94.2005 47.1319 71.4194 31.9224 71.4194C16.7129 71.4194 16.7129 94.2005 31.9224 94.2005ZM31.9224 89.6311C23.0925 89.6311 23.0925 75.9668 31.9224 75.9668C40.7523 75.9668 40.7523 89.6311 31.9224 89.6311ZM57.5953 81.1544L48.8979 71.4636H47.463V93.8915H51.9442V81.5517L57.5953 87.4898L63.2685 81.5517L63.2244 93.8915H67.7056V71.4636H66.3149L57.5953 81.1544ZM84.1292 93.8915V89.4766H77.1094V85.0616H82.9151V80.6246H77.1094V76.2096H83.7539V71.7947H72.6945V93.8915H84.1292ZM113.047 93.8915L107.926 84.7746C114.416 82.8983 113.643 71.7947 105.762 71.7947H97.0429V93.8915H101.458V85.4589H103.599L108.036 93.8915H113.047ZM101.458 76.2096H105.343C108.345 76.2096 108.345 81.1544 105.343 81.1544H101.458V76.2096ZM127.418 93.8915V89.4766H120.398V85.0616H126.204V80.6246H120.398V76.2096H127.042V71.7947H115.983V93.8915H127.418ZM141.7 81.1544L132.981 71.4636H131.568V93.8915H136.049V81.5517L141.7 87.4898L147.351 81.5517L147.329 93.8915H151.81V71.4636H150.42L141.7 81.1544ZM167.417 94.2005C182.605 94.2005 182.605 71.4194 167.417 71.4194C152.208 71.4194 152.208 94.2005 167.417 94.2005ZM167.417 89.6311C158.565 89.6311 158.565 75.9668 167.417 75.9668C176.247 75.9668 176.247 89.6311 167.417 89.6311ZM189.536 71.7947H182.958V93.8915H189.536C204.238 93.8915 204.238 71.7947 189.536 71.7947ZM189.536 76.2096C198.123 76.2096 198.123 89.4766 189.536 89.4766H187.373V76.2096H189.536ZM216.136 93.8915V89.4766H209.138V85.0616H214.944V80.6246H209.138V76.2096H215.783V71.7947H204.701V93.8915H216.136ZM220.286 71.7947V93.8915H231.721V89.4766H224.701V71.7947H220.286ZM239.933 93.8915V71.7947H235.518V93.8915H239.933ZM249.336 81.8608L260.528 94.3551H261.698V71.8168H257.239V84.3111L246.091 71.3311H244.922V93.8915H249.336V81.8608ZM282.625 92.5229V82.8321H278.144V89.4766C277.747 89.5428 277.305 89.5869 276.908 89.5869C268.365 89.5869 267.968 76.4083 276.908 76.0993C279.248 76.033 280.683 76.5187 281.544 76.894L282.073 72.4128C281.654 72.2803 279.535 71.5077 276.908 71.6181C261.566 72.17 262.316 94.0239 276.908 94.0239C279.005 94.0239 280.925 93.4942 282.625 92.5229ZM294.281 93.8915H299.27L300.153 91.5074H307.459L308.364 93.8915H313.331L304.038 71H303.574L294.281 93.8915ZM301.742 87.3795L303.817 81.6179L305.826 87.3795H301.742ZM320.859 81.8608L332.028 94.3551H333.22V71.8168H328.761V84.3111L317.614 71.3311H316.422V93.8915H320.859V81.8608ZM344.766 71.7947H338.187V93.8915H344.766C359.489 93.8915 359.489 71.7947 344.766 71.7947ZM344.766 76.2096C353.353 76.2096 353.353 89.4766 344.766 89.4766H342.602V76.2096H344.766ZM384.721 93.8915L379.599 84.7746C386.089 82.8983 385.317 71.7947 377.436 71.7947H368.717V93.8915H373.132V85.4589H375.273L379.732 93.8915H384.721ZM373.132 76.2096H377.039C380.041 76.2096 380.041 81.1544 377.039 81.1544H373.132V76.2096ZM399.091 93.8915V89.4766H392.094V85.0616H397.899V80.6246H392.094V76.2096H398.738V71.7947H387.657V93.8915H399.091ZM407.656 93.8915V85.4589H411.917C420.482 85.4589 420.526 71.8168 411.917 71.8168H403.242V93.8915H407.656ZM407.656 81.1544V76.2096H411.564C414.522 76.2096 414.522 81.1544 411.564 81.1544H407.656ZM418.451 93.8915H423.462L424.323 91.5074H431.652L432.535 93.8915H437.524L428.208 71H427.744L418.451 93.8915ZM425.934 87.3795L427.987 81.6179L429.996 87.3795H425.934ZM445.029 93.8915V71.7947H440.614V93.8915H445.029ZM466 93.8915L460.879 84.7746C467.369 82.8983 466.596 71.7947 458.715 71.7947H449.996V93.8915H454.411V85.4589H456.552L461.011 93.8915H466ZM454.411 76.2096H458.318C461.32 76.2096 461.32 81.1544 458.318 81.1544H454.411V76.2096Z" fill="white"/>
</g>
<defs>
<clipPath id="clip0_725_602">
<rect width="467" height="95" fill="white"/>
</clipPath>
</defs>
</svg>
