<svg width="466" height="60" viewBox="0 0 466 60" fill="none" xmlns="http://www.w3.org/2000/svg">
<g clip-path="url(#clip0_722_368)">
<path d="M28.5442 13.4729V2.05519H0V59.2008H11.4177V36.3654H25.9753V24.8906H11.4177V13.4729H28.5442ZM49.3815 59.2008V2.05519H37.9638V59.2008H49.3815ZM103.673 59.2008L90.3711 35.6232C107.155 30.7707 105.157 2.05519 84.7764 2.05519H62.2835V59.2008H73.7012V37.393H79.1817L90.7136 59.2008H103.673ZM73.7012 13.4729H83.7488C91.5128 13.4729 91.5128 26.2607 83.7488 26.2607H73.7012V13.4729ZM108.639 55.5471C116.346 59.5433 123.482 59.9429 126.679 59.6575C137.412 59.1437 143.92 51.8363 143.92 42.3597C143.92 33.2255 136.27 28.0875 127.421 24.8335C124.11 23.6917 121.313 22.2645 121.028 19.0676C120.742 15.8706 122.626 12.902 126.679 12.6736C128.449 12.6166 132.046 12.5024 138.325 15.0714L139.81 4.05328C132.445 1.4843 128.506 1.4843 125.538 1.65557C116.061 2.11227 109.439 9.47669 109.439 19.0676C109.439 28.6584 117.431 33.2255 126.337 36.4795C129.534 37.6213 132.046 39.0485 132.274 42.3597C132.617 45.4424 129.705 47.8402 126.337 48.0685C123.711 48.3539 116.632 48.1827 110.067 43.5585L108.639 55.5471ZM174.405 59.2008V13.4729H188.62V2.11227H148.715V13.4729H162.988V59.2008H174.405ZM256.327 15.2997L257.697 3.59657C254.215 2.05519 250.39 1.31304 246.394 1.31304C207.745 1.31304 207.631 59.372 246.394 59.372C250.39 59.372 255.414 58.4015 258.953 56.9743L257.412 45.157C255.3 46.2417 251.361 47.6689 246.394 47.6689C223.787 47.6689 223.787 12.8449 246.394 12.8449C251.361 12.8449 254.158 14.215 256.327 15.2997ZM295.547 60C334.881 60 334.881 1.08468 295.547 1.08468C256.213 1.08468 256.213 60 295.547 60ZM295.547 48.1827C272.712 48.1827 272.712 12.8449 295.547 12.8449C318.44 12.8449 318.44 48.1827 295.547 48.1827ZM330.657 59.2008H343.616L345.842 53.0352H364.795L367.079 59.2008H379.981L355.89 0H354.691L330.657 59.2008ZM350.01 42.3597L355.319 27.4596L360.514 42.3597H350.01ZM385.29 55.5471C393.054 59.5433 400.19 59.9429 403.387 59.6575C414.063 59.1437 420.628 51.8363 420.628 42.3597C420.628 33.2255 412.978 28.0875 404.072 24.8335C400.818 23.6917 398.021 22.2645 397.678 19.0676C397.45 15.8706 399.277 12.902 403.387 12.6736C405.157 12.6166 408.754 12.5024 415.033 15.0714L416.46 4.05328C409.153 1.4843 405.214 1.4843 402.245 1.65557C392.769 2.11227 386.089 9.47669 386.089 19.0676C386.089 28.6584 394.082 33.2255 403.045 36.4795C406.242 37.6213 408.754 39.0485 408.982 42.3597C409.267 45.4424 406.413 47.8402 403.045 48.0685C400.419 48.3539 393.283 48.1827 386.774 43.5585L385.29 55.5471ZM451.113 59.2008V13.4729H465.328V2.11227H425.423V13.4729H439.638V59.2008H451.113Z" fill="#F69800"/>
</g>
<defs>
<clipPath id="clip0_722_368">
<rect width="465.328" height="60" fill="white"/>
</clipPath>
</defs>
</svg>
