<svg width="595" height="94" viewBox="0 0 595 94" fill="none" xmlns="http://www.w3.org/2000/svg">
<g clip-path="url(#clip0_725_444)">
<path d="M157.408 13.4729V2.05519H128.863V59.2008H140.281V36.3654H154.839V24.8906H140.281V13.4729H157.408ZM178.245 59.2008V2.05519H166.827V59.2008H178.245ZM232.536 59.2008L219.234 35.6232C236.018 30.7707 234.02 2.05519 213.64 2.05519H191.147V59.2008H202.565V37.393H208.045L219.577 59.2008H232.536ZM202.565 13.4729H212.612C220.376 13.4729 220.376 26.2607 212.612 26.2607H202.565V13.4729ZM237.503 55.5471C245.21 59.5433 252.346 59.9429 255.543 59.6575C266.275 59.1437 272.783 51.8363 272.783 42.3597C272.783 33.2255 265.133 28.0875 256.285 24.8335C252.974 23.6917 250.176 22.2645 249.891 19.0676C249.605 15.8706 251.489 12.902 255.543 12.6736C257.312 12.6166 260.909 12.5024 267.189 15.0714L268.673 4.05328C261.309 1.4843 257.369 1.4843 254.401 1.65557C244.924 2.11227 238.302 9.47669 238.302 19.0676C238.302 28.6584 246.294 33.2255 255.2 36.4795C258.397 37.6213 260.909 39.0485 261.137 42.3597C261.48 45.4424 258.568 47.8402 255.2 48.0685C252.574 48.3539 245.495 48.1827 238.93 43.5585L237.503 55.5471ZM303.269 59.2008V13.4729H317.484V2.11227H277.579V13.4729H291.851V59.2008H303.269ZM385.191 15.2997L386.561 3.59657C383.078 2.05519 379.253 1.31304 375.257 1.31304C336.608 1.31304 336.494 59.372 375.257 59.372C379.253 59.372 384.277 58.4015 387.817 56.9743L386.275 45.157C384.163 46.2417 380.224 47.6689 375.257 47.6689C352.65 47.6689 352.65 12.8449 375.257 12.8449C380.224 12.8449 383.021 14.215 385.191 15.2997ZM424.41 60C463.744 60 463.744 1.08468 424.41 1.08468C385.076 1.08468 385.076 60 424.41 60ZM424.41 48.1827C401.575 48.1827 401.575 12.8449 424.41 12.8449C447.303 12.8449 447.303 48.1827 424.41 48.1827ZM459.52 59.2008H472.479L474.705 53.0352H493.659L495.942 59.2008H508.844L484.753 0H483.554L459.52 59.2008ZM478.873 42.3597L484.182 27.4596L489.377 42.3597H478.873ZM514.153 55.5471C521.917 59.5433 529.054 59.9429 532.25 59.6575C542.926 59.1437 549.491 51.8363 549.491 42.3597C549.491 33.2255 541.841 28.0875 532.936 24.8335C529.682 23.6917 526.884 22.2645 526.542 19.0676C526.313 15.8706 528.14 12.902 532.25 12.6736C534.02 12.6166 537.617 12.5024 543.897 15.0714L545.324 4.05328C538.016 1.4843 534.077 1.4843 531.109 1.65557C521.632 2.11227 514.953 9.47669 514.953 19.0676C514.953 28.6584 522.945 33.2255 531.908 36.4795C535.105 37.6213 537.617 39.0485 537.845 42.3597C538.131 45.4424 535.276 47.8402 531.908 48.0685C529.282 48.3539 522.146 48.1827 515.638 43.5585L514.153 55.5471ZM579.976 59.2008V13.4729H594.191V2.11227H554.287V13.4729H568.502V59.2008H579.976Z" fill="white"/>
<path d="M78.3956 86.8617C93.2514 86.8617 105.293 74.8198 105.293 59.964C105.293 45.1083 93.2514 33.0664 78.3956 33.0664C74.5369 33.0664 70.8684 33.8795 67.5517 35.3423L65.0813 31.9222C69.241 29.9449 73.7899 28.922 78.3956 28.9283C95.5377 28.9283 109.431 42.824 109.431 59.964C109.431 77.1061 95.5377 90.9998 78.3956 90.9998C64.8847 90.9998 53.387 82.3635 49.1269 70.3093H1.85945C0.706989 70.3093 0.237316 69.521 0.816649 68.5361L40.1079 1.73686C40.6851 0.756126 41.6183 0.751988 42.1956 1.73686L81.4889 68.534C82.0661 69.5148 81.6027 70.3072 80.4461 70.3072H60.5708V66.1691H75.2921L41.1528 8.23574L7.01345 66.1691H51.947L53.5629 70.3734C57.6679 80.0669 67.2393 86.8617 78.3956 86.8617Z" fill="white"/>
<path d="M144.316 93.8915V71.7947H139.901V80.6246H133.278V71.7947H128.863V93.8915H133.278V85.0616H139.901V93.8915H144.316ZM159.922 94.2005C175.132 94.2005 175.132 71.4194 159.922 71.4194C144.713 71.4194 144.713 94.2005 159.922 94.2005ZM159.922 89.6311C151.093 89.6311 151.093 75.9668 159.922 75.9668C168.752 75.9668 168.752 89.6311 159.922 89.6311ZM185.595 81.1544L176.898 71.4636H175.463V93.8915H179.944V81.5517L185.595 87.4898L191.269 81.5517L191.224 93.8915H195.706V71.4636H194.315L185.595 81.1544ZM212.129 93.8915V89.4766H205.109V85.0616H210.915V80.6246H205.109V76.2096H211.754V71.7947H200.694V93.8915H212.129ZM241.047 93.8915L235.926 84.7746C242.416 82.8983 241.643 71.7947 233.762 71.7947H225.043V93.8915H229.458V85.4589H231.599L236.036 93.8915H241.047ZM229.458 76.2096H233.343C236.345 76.2096 236.345 81.1544 233.343 81.1544H229.458V76.2096ZM255.418 93.8915V89.4766H248.398V85.0616H254.204V80.6246H248.398V76.2096H255.042V71.7947H243.983V93.8915H255.418ZM269.7 81.1544L260.981 71.4636H259.568V93.8915H264.049V81.5517L269.7 87.4898L275.351 81.5517L275.329 93.8915H279.81V71.4636H278.42L269.7 81.1544ZM295.417 94.2005C310.605 94.2005 310.605 71.4194 295.417 71.4194C280.208 71.4194 280.208 94.2005 295.417 94.2005ZM295.417 89.6311C286.565 89.6311 286.565 75.9668 295.417 75.9668C304.247 75.9668 304.247 89.6311 295.417 89.6311ZM317.536 71.7947H310.958V93.8915H317.536C332.238 93.8915 332.238 71.7947 317.536 71.7947ZM317.536 76.2096C326.123 76.2096 326.123 89.4766 317.536 89.4766H315.373V76.2096H317.536ZM344.136 93.8915V89.4766H337.138V85.0616H342.944V80.6246H337.138V76.2096H343.783V71.7947H332.701V93.8915H344.136ZM348.286 71.7947V93.8915H359.721V89.4766H352.701V71.7947H348.286ZM367.933 93.8915V71.7947H363.518V93.8915H367.933ZM377.336 81.8608L388.528 94.3551H389.698V71.8168H385.239V84.3111L374.091 71.3311H372.922V93.8915H377.336V81.8608ZM410.625 92.5229V82.8321H406.144V89.4766C405.747 89.5428 405.305 89.5869 404.908 89.5869C396.365 89.5869 395.968 76.4083 404.908 76.0993C407.248 76.033 408.683 76.5187 409.544 76.894L410.073 72.4128C409.654 72.2803 407.535 71.5077 404.908 71.6181C389.566 72.17 390.316 94.0239 404.908 94.0239C407.005 94.0239 408.925 93.4942 410.625 92.5229ZM422.281 93.8915H427.27L428.153 91.5074H435.459L436.364 93.8915H441.331L432.038 71H431.574L422.281 93.8915ZM429.742 87.3795L431.817 81.6179L433.826 87.3795H429.742ZM448.859 81.8608L460.028 94.3551H461.22V71.8168H456.761V84.3111L445.614 71.3311H444.422V93.8915H448.859V81.8608ZM472.766 71.7947H466.187V93.8915H472.766C487.489 93.8915 487.489 71.7947 472.766 71.7947ZM472.766 76.2096C481.353 76.2096 481.353 89.4766 472.766 89.4766H470.602V76.2096H472.766ZM512.721 93.8915L507.599 84.7746C514.089 82.8983 513.317 71.7947 505.436 71.7947H496.717V93.8915H501.132V85.4589H503.273L507.732 93.8915H512.721ZM501.132 76.2096H505.039C508.041 76.2096 508.041 81.1544 505.039 81.1544H501.132V76.2096ZM527.091 93.8915V89.4766H520.094V85.0616H525.899V80.6246H520.094V76.2096H526.738V71.7947H515.657V93.8915H527.091ZM535.656 93.8915V85.4589H539.917C548.482 85.4589 548.526 71.8168 539.917 71.8168H531.242V93.8915H535.656ZM535.656 81.1544V76.2096H539.564C542.522 76.2096 542.522 81.1544 539.564 81.1544H535.656ZM546.451 93.8915H551.462L552.323 91.5074H559.652L560.535 93.8915H565.524L556.208 71H555.744L546.451 93.8915ZM553.934 87.3795L555.987 81.6179L557.996 87.3795H553.934ZM573.029 93.8915V71.7947H568.614V93.8915H573.029ZM594 93.8915L588.879 84.7746C595.369 82.8983 594.596 71.7947 586.715 71.7947H577.996V93.8915H582.411V85.4589H584.552L589.011 93.8915H594ZM582.411 76.2096H586.318C589.32 76.2096 589.32 81.1544 586.318 81.1544H582.411V76.2096Z" fill="white"/>
</g>
<defs>
<clipPath id="clip0_725_444">
<rect width="595" height="94" fill="white"/>
</clipPath>
</defs>
</svg>
